<svg width="190" height="64" viewBox="0 0 190 64" fill="none" xmlns="http://www.w3.org/2000/svg">
<path fill-rule="evenodd" clip-rule="evenodd" d="M38.7163 50.7393C50.2704 45.8252 55.6532 32.475 50.7391 20.9209C45.8249 9.36672 32.4748 3.98393 20.9206 8.89807C9.36648 13.8122 3.98369 27.1624 8.89783 38.7165C11.5755 45.0123 16.758 49.4758 22.7898 51.4394C22.8283 52.25 23.0087 53.0677 23.3449 53.8582C24.8653 57.433 28.9959 59.0985 32.5708 57.578C35.1366 56.4868 36.7187 54.051 36.8454 51.4411C37.4731 51.2363 38.0973 51.0026 38.7163 50.7393Z" fill="#3BC1F1"/>
<path fill-rule="evenodd" clip-rule="evenodd" d="M15.0064 23.7619C16.71 23.7619 18.0911 22.3809 18.0911 20.6772C18.0911 18.9736 16.71 17.5926 15.0064 17.5926C13.3028 17.5926 11.9218 18.9736 11.9218 20.6772C11.9218 22.3809 13.3028 23.7619 15.0064 23.7619ZM18.4724 22.4826C18.7543 21.9426 18.9136 21.3285 18.9136 20.6772C18.9136 18.5193 17.1643 16.77 15.0064 16.77C12.8485 16.77 11.0992 18.5193 11.0992 20.6772C11.0992 22.8351 12.8485 24.5845 15.0064 24.5845C16.2171 24.5845 17.2991 24.0338 18.0158 23.1694L22.3161 25.6057C21.7178 26.7806 21.3805 28.1106 21.3805 29.5195C21.3805 30.9319 21.7196 32.2652 22.3207 33.4423L18.0838 35.8366C17.5783 35.0079 16.6659 34.4547 15.6242 34.4547C14.0342 34.4547 12.7452 35.7437 12.7452 37.3337C12.7452 38.9238 14.0342 40.2127 15.6242 40.2127C17.2142 40.2127 18.5032 38.9238 18.5032 37.3337C18.5032 37.0794 18.4702 36.8329 18.4084 36.598L22.7294 34.1562C24.1935 36.4528 26.7134 38.0109 29.6052 38.1468V45.9744C26.8625 46.0837 24.6725 48.3417 24.6725 51.1113C24.6725 53.9507 26.9742 56.2524 29.8136 56.2524C32.6529 56.2524 34.9547 53.9507 34.9547 51.1113C34.9547 48.4798 32.9776 46.3101 30.4278 46.0065V38.1469C33.3276 38.0113 35.8536 36.4457 37.3165 34.1393L41.0844 36.2862C40.8465 36.7911 40.7135 37.3551 40.7135 37.9501C40.7135 40.108 42.4628 41.8574 44.6207 41.8574C46.7786 41.8574 48.5279 40.108 48.5279 37.9501C48.5279 35.7922 46.7786 34.0429 44.6207 34.0429C43.3526 34.0429 42.2257 34.647 41.5119 35.583L37.7235 33.4244C38.319 32.2517 38.6546 30.9248 38.6546 29.5195C38.6546 28.1186 38.3211 26.7957 37.7292 25.6257L41.0137 23.7465C41.7209 24.7501 42.8888 25.4057 44.2099 25.4057C46.3678 25.4057 48.1171 23.6563 48.1171 21.4984C48.1171 19.3405 46.3678 17.5912 44.2099 17.5912C42.052 17.5912 40.3026 19.3405 40.3026 21.4984C40.3026 22.0412 40.4133 22.5581 40.6133 23.0279L37.3232 24.9103C35.7929 22.4898 33.093 20.8824 30.0176 20.8824C26.9502 20.8824 24.2563 22.4814 22.7239 24.8913L18.4724 22.4826ZM30.0176 36.9226C34.1062 36.9226 37.4207 33.6081 37.4207 29.5195C37.4207 25.4308 34.1062 22.1163 30.0176 22.1163C25.9289 22.1163 22.6144 25.4308 22.6144 29.5195C22.6144 33.6081 25.9289 36.9226 30.0176 36.9226ZM46.0598 21.4987C46.0598 22.5209 45.2311 23.3495 44.209 23.3495C43.1868 23.3495 42.3582 22.5209 42.3582 21.4987C42.3582 20.4765 43.1868 19.6479 44.209 19.6479C45.2311 19.6479 46.0598 20.4765 46.0598 21.4987ZM44.6207 41.0348C46.3243 41.0348 47.7054 39.6537 47.7054 37.9501C47.7054 36.2465 46.3243 34.8655 44.6207 34.8655C42.9171 34.8655 41.536 36.2465 41.536 37.9501C41.536 39.6537 42.9171 41.0348 44.6207 41.0348ZM15.6242 39.3902C16.7599 39.3902 17.6806 38.4695 17.6806 37.3337C17.6806 36.198 16.7599 35.2773 15.6242 35.2773C14.4885 35.2773 13.5678 36.198 13.5678 37.3337C13.5678 38.4695 14.4885 39.3902 15.6242 39.3902ZM34.1321 51.1113C34.1321 53.4964 32.1986 55.4298 29.8136 55.4298C27.4285 55.4298 25.4951 53.4964 25.4951 51.1113C25.4951 48.7263 27.4285 46.7928 29.8136 46.7928C32.1986 46.7928 34.1321 48.7263 34.1321 51.1113ZM44.2099 24.5831C45.9135 24.5831 47.2945 23.202 47.2945 21.4984C47.2945 19.7948 45.9135 18.4138 44.2099 18.4138C42.5063 18.4138 41.1252 19.7948 41.1252 21.4984C41.1252 23.202 42.5063 24.5831 44.2099 24.5831ZM30.0206 35.2772C33.2007 35.2772 35.7787 32.6993 35.7787 29.5192C35.7787 26.3391 33.2007 23.7612 30.0206 23.7612C26.8406 23.7612 24.2626 26.3391 24.2626 29.5192C24.2626 32.6993 26.8406 35.2772 30.0206 35.2772Z" fill="white"/>
<path d="M67.7859 38.1981C67.1187 38.1981 66.5106 38.1286 65.9615 37.9896C65.4125 37.8506 64.9399 37.649 64.5437 37.3849C64.1476 37.1139 63.8383 36.7872 63.6159 36.405C63.4004 36.0158 63.2892 35.571 63.2823 35.0706C63.2753 35.008 63.2719 34.9455 63.2719 34.8829C63.2719 34.8134 63.2719 34.7543 63.2719 34.7057H64.575C64.575 34.7543 64.575 34.803 64.575 34.8516C64.575 34.8933 64.575 34.9489 64.575 35.0184C64.5958 35.6578 64.8877 36.1548 65.4507 36.5092C66.0206 36.8567 66.8059 37.0305 67.8067 37.0305C68.4461 37.0305 69.0056 36.961 69.4852 36.822C69.9717 36.676 70.3539 36.464 70.6319 36.186C70.9099 35.9011 71.0489 35.5571 71.0489 35.154C71.0489 34.4798 70.757 34.0003 70.1732 33.7153C69.5964 33.4234 68.745 33.1802 67.6191 32.9856C67.0353 32.8883 66.4897 32.7632 65.9824 32.6103C65.482 32.4504 65.0406 32.2523 64.6584 32.016C64.2831 31.7728 63.9877 31.4705 63.7723 31.1091C63.5568 30.7477 63.4491 30.3133 63.4491 29.8059C63.4491 29.1596 63.6437 28.6105 64.0329 28.1588C64.4221 27.707 64.9433 27.363 65.5966 27.1267C66.2569 26.8904 66.9832 26.7723 67.7755 26.7723C68.5608 26.7723 69.2801 26.8939 69.9334 27.1371C70.5937 27.3734 71.1219 27.7279 71.518 28.2005C71.9142 28.6731 72.1123 29.2708 72.1123 29.9936C72.1123 30.0214 72.1123 30.0561 72.1123 30.0978C72.1123 30.1395 72.1123 30.1812 72.1123 30.2229H70.8196C70.8196 30.1882 70.8196 30.1569 70.8196 30.1291C70.8196 30.0944 70.8196 30.0631 70.8196 30.0353C70.8196 29.5279 70.6771 29.1214 70.3921 28.8156C70.1072 28.5098 69.7354 28.2874 69.2767 28.1484C68.818 28.0024 68.328 27.9294 67.8067 27.9294C67.2924 27.9294 66.799 27.992 66.3264 28.1171C65.8538 28.2422 65.4681 28.4403 65.1692 28.7113C64.8773 28.9754 64.7314 29.3264 64.7314 29.7642C64.7314 30.2021 64.8704 30.5565 65.1484 30.8276C65.4264 31.0917 65.819 31.3071 66.3264 31.4739C66.8337 31.6338 67.4245 31.7763 68.0986 31.9014C68.7172 32.0126 69.2836 32.1481 69.7979 32.3079C70.3122 32.4608 70.757 32.6554 71.1323 32.8917C71.5076 33.128 71.7995 33.4269 72.008 33.7883C72.2165 34.1427 72.3208 34.5771 72.3208 35.0914C72.3208 35.5988 72.2061 36.047 71.9767 36.4362C71.7474 36.8185 71.4242 37.1417 71.0072 37.4058C70.5972 37.6699 70.1176 37.8679 69.5686 38C69.0195 38.1321 68.4253 38.1981 67.7859 38.1981ZM78.9712 38.1668C78.6585 38.1668 78.3527 38.1286 78.0538 38.0521C77.7619 37.9757 77.4978 37.8401 77.2615 37.6455C77.0322 37.444 76.8515 37.1695 76.7194 36.822C76.5874 36.4745 76.5214 36.0331 76.5214 35.498C76.5214 35.352 76.5214 35.2026 76.5214 35.0497C76.5214 34.8899 76.5214 34.7231 76.5214 34.5493V28.065H73.8526V26.9286H75.7708C75.9515 26.9286 76.0939 26.9217 76.1982 26.9078C76.3024 26.8939 76.3754 26.8591 76.4171 26.8035C76.4658 26.7479 76.4936 26.6611 76.5005 26.5429C76.5144 26.4248 76.5214 26.2614 76.5214 26.0529V23.3529H77.8141V26.9286H81.3586V28.065H77.8141V34.1219C77.8141 34.2887 77.8141 34.4485 77.8141 34.6014C77.8141 34.7543 77.8141 34.8968 77.8141 35.0289C77.8141 35.6544 77.9044 36.1443 78.0851 36.4988C78.2728 36.8532 78.6237 37.0305 79.138 37.0305C79.3326 37.0305 79.5238 37.0131 79.7114 36.9783C79.8991 36.9436 80.0415 36.9054 80.1388 36.8637V37.9896C80.0207 38.0382 79.8574 38.0799 79.6489 38.1147C79.4404 38.1494 79.2145 38.1668 78.9712 38.1668ZM87.2464 38.1981C86.3985 38.1981 85.6583 38.0695 85.0259 37.8123C84.3934 37.5552 83.9035 37.1834 83.556 36.6969C83.2154 36.2034 83.0451 35.6092 83.0451 34.9142C83.0451 34.2122 83.2258 33.6284 83.5872 33.1628C83.9486 32.6902 84.4629 32.3218 85.1301 32.0577C85.8043 31.7936 86.6001 31.6164 87.5175 31.5261C88.9283 31.3801 89.9395 31.2342 90.5511 31.0882C91.1697 30.9353 91.479 30.6921 91.479 30.3585C91.479 30.3376 91.479 30.3168 91.479 30.2959C91.479 30.2681 91.479 30.2403 91.479 30.2125C91.479 29.4967 91.1871 28.9407 90.6033 28.5445C90.0195 28.1484 89.1889 27.9503 88.1117 27.9503C86.9858 27.9503 86.1066 28.1727 85.4742 28.6175C84.8487 29.0623 84.5359 29.7225 84.5359 30.5982H83.2641C83.2641 29.799 83.4656 29.1144 83.8687 28.5445C84.2718 27.9677 84.8382 27.5298 85.568 27.231C86.2977 26.9252 87.1491 26.7723 88.1221 26.7723C88.9978 26.7723 89.7866 26.9078 90.4886 27.1788C91.1905 27.4499 91.7465 27.846 92.1566 28.3673C92.5736 28.8816 92.7821 29.5175 92.7821 30.2751C92.7821 30.421 92.7821 30.567 92.7821 30.7129C92.7821 30.8519 92.7821 30.9944 92.7821 31.1403V36.0401C92.7821 36.2764 92.7925 36.5023 92.8134 36.7177C92.8342 36.9332 92.8655 37.1208 92.9072 37.2807C92.9697 37.4822 93.0358 37.6421 93.1053 37.7602C93.1748 37.8784 93.2304 37.9583 93.2721 38H91.9689C91.9411 37.9722 91.896 37.8992 91.8334 37.7811C91.7709 37.656 91.7083 37.51 91.6458 37.3432C91.5902 37.1695 91.5519 36.9749 91.5311 36.7594C91.5102 36.544 91.4998 36.2833 91.4998 35.9775L91.7083 36.1339C91.4859 36.544 91.1627 36.9054 90.7388 37.2181C90.3148 37.5239 89.8075 37.7637 89.2167 37.9374C88.626 38.1112 87.9692 38.1981 87.2464 38.1981ZM87.4445 37.0409C88.1951 37.0409 88.8727 36.9193 89.4774 36.676C90.089 36.4258 90.5755 36.0714 90.9369 35.6127C91.2983 35.147 91.479 34.5841 91.479 33.9238V31.3384L91.7604 31.818C91.3573 32.0195 90.8083 32.1828 90.1133 32.3079C89.4183 32.4261 88.6642 32.5234 87.8511 32.5998C86.7043 32.711 85.8321 32.93 85.2344 33.2566C84.6436 33.5833 84.3483 34.1149 84.3483 34.8516C84.3483 35.5605 84.6089 36.1026 85.1301 36.4779C85.6514 36.8532 86.4228 37.0409 87.4445 37.0409ZM99.6584 38.1668C99.3456 38.1668 99.0398 38.1286 98.741 38.0521C98.4491 37.9757 98.185 37.8401 97.9487 37.6455C97.7193 37.444 97.5386 37.1695 97.4066 36.822C97.2745 36.4745 97.2085 36.0331 97.2085 35.498C97.2085 35.352 97.2085 35.2026 97.2085 35.0497C97.2085 34.8899 97.2085 34.7231 97.2085 34.5493V28.065H94.5397V26.9286H96.4579C96.6386 26.9286 96.7811 26.9217 96.8853 26.9078C96.9896 26.8939 97.0625 26.8591 97.1042 26.8035C97.1529 26.7479 97.1807 26.6611 97.1876 26.5429C97.2015 26.4248 97.2085 26.2614 97.2085 26.0529V23.3529H98.5012V26.9286H102.046V28.065H98.5012V34.1219C98.5012 34.2887 98.5012 34.4485 98.5012 34.6014C98.5012 34.7543 98.5012 34.8968 98.5012 35.0289C98.5012 35.6544 98.5915 36.1443 98.7722 36.4988C98.9599 36.8532 99.3109 37.0305 99.8252 37.0305C100.02 37.0305 100.211 37.0131 100.399 36.9783C100.586 36.9436 100.729 36.9054 100.826 36.8637V37.9896C100.708 38.0382 100.544 38.0799 100.336 38.1147C100.127 38.1494 99.9016 38.1668 99.6584 38.1668ZM108.456 38.1877C107.664 38.1877 107.007 38.0487 106.486 37.7706C105.972 37.4926 105.569 37.1347 105.277 36.6969C104.985 36.2521 104.78 35.776 104.662 35.2686C104.551 34.7613 104.495 34.2852 104.495 33.8404C104.495 33.5763 104.495 33.3018 104.495 33.0168C104.495 32.7319 104.495 32.4469 104.495 32.162V26.9286H105.798V32.0369C105.798 32.301 105.798 32.5616 105.798 32.8188C105.798 33.0759 105.798 33.3226 105.798 33.5589C105.798 34.1497 105.885 34.7092 106.059 35.2374C106.232 35.7586 106.531 36.1826 106.955 36.5092C107.379 36.8359 107.956 36.9992 108.686 36.9992C109.374 36.9992 109.978 36.8115 110.5 36.4362C111.021 36.0609 111.428 35.5849 111.719 35.008C112.018 34.4242 112.168 33.8265 112.168 33.2149L112.96 33.5381C112.96 34.0941 112.856 34.6466 112.647 35.1957C112.446 35.7378 112.15 36.2382 111.761 36.6969C111.379 37.1486 110.906 37.51 110.343 37.7811C109.787 38.0521 109.158 38.1877 108.456 38.1877ZM112.168 38V26.9286H113.46V38H112.168ZM120.909 38.1981C120.241 38.1981 119.633 38.1286 119.084 37.9896C118.535 37.8506 118.063 37.649 117.666 37.3849C117.27 37.1139 116.961 36.7872 116.739 36.405C116.523 36.0158 116.412 35.571 116.405 35.0706C116.398 35.008 116.395 34.9455 116.395 34.8829C116.395 34.8134 116.395 34.7543 116.395 34.7057H117.698C117.698 34.7543 117.698 34.803 117.698 34.8516C117.698 34.8933 117.698 34.9489 117.698 35.0184C117.719 35.6578 118.01 36.1548 118.573 36.5092C119.143 36.8567 119.929 37.0305 120.929 37.0305C121.569 37.0305 122.128 36.961 122.608 36.822C123.094 36.676 123.477 36.464 123.755 36.186C124.033 35.9011 124.172 35.5571 124.172 35.154C124.172 34.4798 123.88 34.0003 123.296 33.7153C122.719 33.4234 121.868 33.1802 120.742 32.9856C120.158 32.8883 119.612 32.7632 119.105 32.6103C118.605 32.4504 118.163 32.2523 117.781 32.016C117.406 31.7728 117.11 31.4705 116.895 31.1091C116.68 30.7477 116.572 30.3133 116.572 29.8059C116.572 29.1596 116.766 28.6105 117.156 28.1588C117.545 27.707 118.066 27.363 118.719 27.1267C119.38 26.8904 120.106 26.7723 120.898 26.7723C121.684 26.7723 122.403 26.8939 123.056 27.1371C123.716 27.3734 124.245 27.7279 124.641 28.2005C125.037 28.6731 125.235 29.2708 125.235 29.9936C125.235 30.0214 125.235 30.0561 125.235 30.0978C125.235 30.1395 125.235 30.1812 125.235 30.2229H123.942C123.942 30.1882 123.942 30.1569 123.942 30.1291C123.942 30.0944 123.942 30.0631 123.942 30.0353C123.942 29.5279 123.8 29.1214 123.515 28.8156C123.23 28.5098 122.858 28.2874 122.399 28.1484C121.941 28.0024 121.451 27.9294 120.929 27.9294C120.415 27.9294 119.922 27.992 119.449 28.1171C118.976 28.2422 118.591 28.4403 118.292 28.7113C118 28.9754 117.854 29.3264 117.854 29.7642C117.854 30.2021 117.993 30.5565 118.271 30.8276C118.549 31.0917 118.942 31.3071 119.449 31.4739C119.956 31.6338 120.547 31.7763 121.221 31.9014C121.84 32.0126 122.406 32.1481 122.921 32.3079C123.435 32.4608 123.88 32.6554 124.255 32.8917C124.63 33.128 124.922 33.4269 125.131 33.7883C125.339 34.1427 125.443 34.5771 125.443 35.0914C125.443 35.5988 125.329 36.047 125.099 36.4362C124.87 36.8185 124.547 37.1417 124.13 37.4058C123.72 37.6699 123.24 37.8679 122.691 38C122.142 38.1321 121.548 38.1981 120.909 38.1981ZM136.08 38V33.9447C136.08 33.764 136.08 33.545 136.08 33.2879C136.08 33.0307 136.08 32.7701 136.08 32.506C136.08 32.235 136.08 32.0091 136.08 31.8284C136.08 30.8345 135.875 30.0805 135.465 29.5662C135.062 29.0519 134.398 28.7947 133.474 28.7947C132.856 28.7947 132.32 28.9163 131.869 29.1596C131.417 29.4028 131.066 29.7364 130.816 30.1604C130.573 30.5843 130.451 31.0674 130.451 31.6095L129.388 31.1716C129.388 30.3307 129.589 29.5801 129.992 28.9198C130.402 28.2526 130.962 27.7244 131.671 27.3352C132.386 26.946 133.203 26.7514 134.12 26.7514C135.455 26.7514 136.49 27.151 137.227 27.9503C137.971 28.7426 138.343 29.8476 138.343 31.2654C138.343 31.6268 138.343 32.0543 138.343 32.5477C138.343 33.0342 138.343 33.5659 138.343 34.1427V38H136.08ZM128.189 38V21.7057H130.451V38H128.189ZM145.234 38.1981C144.449 38.1981 143.795 38.066 143.274 37.8019C142.753 37.5309 142.339 37.1799 142.034 36.749C141.728 36.3111 141.512 35.8351 141.387 35.3208C141.262 34.7995 141.2 34.2922 141.2 33.7987C141.2 33.5416 141.2 33.274 141.2 32.996C141.2 32.711 141.2 32.4261 141.2 32.1411V26.9286H143.472V31.818C143.472 32.0682 143.472 32.3149 143.472 32.5581C143.472 32.7944 143.472 33.0168 143.472 33.2253C143.472 33.7605 143.542 34.2539 143.681 34.7057C143.82 35.1505 144.063 35.5119 144.41 35.7899C144.765 36.0609 145.258 36.1965 145.891 36.1965C146.482 36.1965 146.996 36.0227 147.434 35.6752C147.872 35.3208 148.212 34.876 148.455 34.3408C148.699 33.7987 148.82 33.2566 148.82 32.7145L149.811 33.2462C149.811 33.8856 149.703 34.5007 149.487 35.0914C149.279 35.6822 148.977 36.2138 148.58 36.6864C148.184 37.1521 147.701 37.5204 147.131 37.7915C146.568 38.0626 145.936 38.1981 145.234 38.1981ZM148.82 38V26.9286H151.082V38H148.82ZM159.773 38.2189C158.912 38.2189 158.112 38.0035 157.376 37.5726C156.639 37.1347 156.041 36.537 155.582 35.7795C155.131 35.0219 154.905 34.1636 154.905 33.2045C154.905 33.1767 154.905 33.1558 154.905 33.1419C154.905 33.1211 154.905 33.1002 154.905 33.0794L156.218 33.0481C156.218 33.062 156.218 33.0794 156.218 33.1002C156.218 33.1141 156.218 33.1315 156.218 33.1524C156.218 33.7223 156.364 34.2366 156.656 34.6953C156.955 35.147 157.341 35.5049 157.813 35.769C158.286 36.0331 158.793 36.1652 159.335 36.1652C160.225 36.1652 160.972 35.8629 161.577 35.2582C162.188 34.6466 162.494 33.7084 162.494 32.4435C162.494 31.1716 162.192 30.2368 161.587 29.6391C160.983 29.0345 160.232 28.7322 159.335 28.7322C158.793 28.7322 158.286 28.8642 157.813 29.1283C157.341 29.3855 156.955 29.7399 156.656 30.1917C156.364 30.6365 156.218 31.1473 156.218 31.7241L154.905 31.672C154.905 30.706 155.131 29.8546 155.582 29.1179C156.041 28.3742 156.639 27.7939 157.376 27.3769C158.112 26.9599 158.912 26.7514 159.773 26.7514C160.67 26.7514 161.5 26.9738 162.265 27.4186C163.029 27.8565 163.644 28.4993 164.11 29.3472C164.583 30.1951 164.819 31.2272 164.819 32.4435C164.819 33.6875 164.59 34.7404 164.131 35.6022C163.672 36.464 163.061 37.1173 162.296 37.5621C161.532 38 160.691 38.2189 159.773 38.2189ZM153.946 38V21.7057H156.218V38H153.946Z" fill="#0B111F"/>
</svg>
