<?xml version="1.0" encoding="UTF-8"?>
<svg width="314px" height="77px" viewBox="0 0 314 77" version="1.1" xmlns="http://www.w3.org/2000/svg" xmlns:xlink="http://www.w3.org/1999/xlink">
    <title>elevent_horz_color</title>
    <g id="Page-1" stroke="none" stroke-width="1" fill="none" fill-rule="evenodd">
        <g id="elevent_horz_color" transform="translate(0.094088, 0.987167)" fill-rule="nonzero">
            <path d="M21.6059121,10.8128327 C21.6059121,4.7128327 16.5059121,-0.2871673 10.3059121,0.0128327004 C4.80591209,0.2128327 0.205912089,4.8128327 0.00591208907,10.4128327 C-0.194087911,16.6128327 4.70591209,21.7128327 10.8059121,21.7128327 C10.8059121,21.7128327 10.9059121,21.7128327 10.9059121,21.7128327 L9.50591209,23.0128327 C9.00591209,23.5128327 9.40591209,24.3128327 10.0059121,24.3128327 L10.9059121,24.3128327 L9.40591209,50.0128327 L10.3059121,50.1128327 L11.9059121,24.4128327 L12.8059121,24.4128327 C13.5059121,24.4128327 13.8059121,23.6128327 13.3059121,23.1128327 L12.0059121,21.8128327 L12.0059121,21.6128327 C17.4059121,21.0128327 21.6059121,16.4128327 21.6059121,10.8128327 Z" id="Path" fill="#F6644A"></path>
            <g id="Group" transform="translate(112.005912, 27.712833)" fill="#1a1a1a">
                <path d="M43.9,38 L43.9,1.19949929e-24 L36.5,1.19949929e-24 L36.5,38.1 C36.5,40.6 36.6,43.5 38.5,45.5 C40,47 42.2,47.7 45.3,47.7 C46.2,47.7 47.1,47.6 47.9,47.6 L48.4,47.6 L48.4,41 L47.9,41 C44.6,41 43.9,41 43.9,38 Z" id="Path"></path>
                <polygon id="Path" points="106.6 11.1 98.3 36.3 90.1 11.1 82.1 11.1 94.9 47.4 101.4 47.4 114.5 11.1"></polygon>
                <path d="M167.8,10.6 C162.2,10.6 159.1,12.9 157.5,14.7 L157.5,11.2 L150.2,11.2 L150.2,47.5 L157.6,47.5 L157.6,30.8 L157.6,30.7 C157.5,26.4 157.5,23.5 159.3,20.8 C160.9,18.3 163.4,17.1 166.5,17.1 C168.8,17.1 170.6,18 171.6,19.7 C172.6,21.3 172.6,23 172.6,29.8 L172.6,47.5 L180,47.5 L180,27.8 C180,21.8 180,17.8 177.3,14.5 C175.3,11.9 171.9,10.6 167.8,10.6 Z" id="Path"></path>
                <path d="M201,41 C199.8,41.2 199.4,41.3 198.3,41.3 C195.1,41.3 194.8,39.8 194.8,35.6 L194.8,17.5 L201.1,17.5 L201.1,11.1 L194.8,11.1 L194.8,0.6 L187.5,0.6 L187.5,11.1 L181.7,11.1 L181.7,17.5 L187.5,17.5 L187.5,36.5 C187.5,39.4 187.5,42.4 188.8,44.4 C190.1,46.5 193,47.7 196.8,47.7 C198.3,47.7 199.7,47.5 201.2,47.2 L201.7,47.1 L201.7,40.9 L201,41 Z" id="Path"></path>
                <path d="M66.6,10.5 C63.1,10.5 58.1,11.1 53.8,16.5 C51.1,20.1 49.7,24.5 49.7,29.6 C49.7,38 53.6,44.7 60,47.2 C61.8,47.9 64,48.2 66.8,48.2 C69.1,48.2 76.1,48.2 80.3,41.9 C81.2,40.5 81.9,39.1 82.3,37.6 L82.5,36.9 L74.7,36.9 L74.6,37.3 C73.4,40.4 71,41.9 67.2,41.9 C61.2,41.9 57.6,38.2 57.4,31.6 L82.9,31.6 L82.9,31 C83,26.8 82.7,20.6 79.1,16 C76.1,12.3 71.9,10.5 66.6,10.5 Z M75.1,25.3 L57.4,25.3 C58.6,19.8 61.7,17 66.7,17 C71.5,17 74.5,20 75.1,25.3 Z" id="Shape"></path>
                <path d="M130.7,10.5 C127.2,10.5 122.2,11.1 117.9,16.5 C115.2,20.1 113.8,24.5 113.8,29.6 C113.8,38 117.7,44.7 124.1,47.2 C125.9,47.9 128.1,48.2 130.9,48.2 C133.2,48.2 140.2,48.2 144.4,41.9 C145.3,40.5 146,39.1 146.4,37.6 L146.6,36.9 L138.8,36.9 L138.7,37.3 C137.5,40.4 135.1,41.9 131.3,41.9 C125.3,41.9 121.7,38.2 121.5,31.6 L146.9,31.6 L146.9,31 C147,26.8 146.7,20.6 143.1,16 C140.2,12.3 136,10.5 130.7,10.5 Z M139.2,25.3 L121.5,25.3 C122.7,19.8 125.8,17 130.8,17 C135.6,17 138.6,20 139.2,25.3 Z" id="Shape"></path>
                <path d="M16.9,10.5 C13.4,10.5 8.4,11.1 4.1,16.5 C1.4,20.1 0,24.5 0,29.6 C0,38 3.9,44.7 10.3,47.2 C12.1,47.9 14.3,48.2 17.1,48.2 C19.4,48.2 26.4,48.2 30.6,41.9 C31.5,40.5 32.2,39.1 32.6,37.6 L32.8,36.9 L24.9,36.9 L24.8,37.3 C23.6,40.4 21.2,41.9 17.4,41.9 C11.4,41.9 7.8,38.2 7.6,31.6 L33.1,31.6 L33.1,31 C33.2,26.8 32.9,20.6 29.3,16 C26.4,12.3 22.2,10.5 16.9,10.5 Z M25.4,25.3 L7.7,25.3 C8.9,19.8 12,17 17,17 C21.8,17 24.8,20 25.4,25.3 Z" id="Shape"></path>
            </g>
            <path d="M60.4059121,6.6128327 C41.5059121,8.1128327 26.0059121,14.5128327 26.0059121,33.5128327 C26.0059121,34.9128327 26.3059121,48.5128327 26.3059121,48.5128327 L26.3059121,50.0128327 C26.3059121,54.7128327 23.3059121,59.7128327 19.5059121,59.7128327 C15.8059121,59.7128327 12.7059121,53.3128327 12.7059121,48.5128327 C12.7059121,48.4128327 6.90591209,49.7128327 6.90591209,49.7128327 C7.40591209,58.6128327 12.3059121,65.6128327 19.4059121,65.6128327 C25.5059121,65.6128327 31.9059121,61.8128327 34.0059121,54.7128327 C45.4059121,62.0128327 43.3059121,75.3128327 43.3059121,75.3128327 L57.9059121,75.3128327 L57.9059121,63.0128327 C57.9059121,63.0128327 59.9059121,64.2128327 66.6059121,64.2128327 C73.4059121,64.2128327 75.1059121,63.0128327 75.1059121,63.0128327 L76.3059121,75.3128327 L87.7059121,75.3128327 C87.7059121,75.3128327 92.1059121,53.3128327 92.7059121,36.2128327 C93.1059121,25.3128327 94.0059121,3.9128327 60.4059121,6.6128327 Z M39.3059121,44.9128327 C37.6059121,44.9128327 36.3059121,43.5128327 36.3059121,41.9128327 C36.3059121,40.2128327 37.7059121,38.9128327 39.3059121,38.9128327 C41.0059121,38.9128327 42.3059121,40.3128327 42.3059121,41.9128327 C42.4059121,43.6128327 41.0059121,44.9128327 39.3059121,44.9128327 Z M55.4059121,50.3128327 C55.4059121,50.3128327 55.4059121,50.3128327 55.4059121,50.3128327 L45.5059121,17.4128327 C45.5059121,17.4128327 45.5059121,17.4128327 45.5059121,17.4128327 C54.6059121,14.7128327 64.2059121,19.8128327 66.9059121,28.9128327 C69.6059121,38.0128327 64.5059121,47.6128327 55.4059121,50.3128327 Z" id="Shape" fill="#3549AA"></path>
        </g>
    </g>
</svg>